<svg width="24" height="24" viewBox="0 0 24 24" fill="none" xmlns="http://www.w3.org/2000/svg">
<mask id="path-1-inside-1_13_319" fill="white">
<path fill-rule="evenodd" clip-rule="evenodd" d="M1.92273 12C3.17588 7.38099 7.21107 4 11.9954 4C16.7797 4 20.8149 7.38099 22.068 12C20.8149 16.619 16.7797 20 11.9954 20C7.21107 20 3.17588 16.619 1.92273 12Z"/>
</mask>
<path d="M1.92273 12L-0.00749421 11.4763L-0.149569 12L-0.00749421 12.5237L1.92273 12ZM22.068 12L23.9982 12.5237L24.1403 12L23.9982 11.4763L22.068 12ZM3.85295 12.5237C4.89284 8.69076 8.19938 6 11.9954 6V2C6.22275 2 1.45893 6.07121 -0.00749421 11.4763L3.85295 12.5237ZM11.9954 6C15.7914 6 19.0979 8.69076 20.1378 12.5237L23.9982 11.4763C22.5318 6.07121 17.768 2 11.9954 2V6ZM20.1378 11.4763C19.0979 15.3092 15.7914 18 11.9954 18V22C17.768 22 22.5318 17.9288 23.9982 12.5237L20.1378 11.4763ZM11.9954 18C8.19938 18 4.89283 15.3092 3.85295 11.4763L-0.00749421 12.5237C1.45893 17.9288 6.22275 22 11.9954 22V18Z" fill="#1F2B38" mask="url(#path-1-inside-1_13_319)"/>
<circle cx="12" cy="12" r="3" stroke="#1F2B38" stroke-width="2"/>
</svg>
