<svg width="53" height="200" viewBox="0 0 53 200" fill="none" xmlns="http://www.w3.org/2000/svg">
<path d="M1 2.80051C1 2.54272 1.20898 2.33374 1.46677 2.33374H51.8775C52.1353 2.33374 52.3443 2.54272 52.3443 2.80051V3.73404C52.3443 3.99183 52.1353 4.2008 51.8775 4.2008H1.46677C1.20898 4.2008 1 3.99183 1 3.73404V2.80051Z" fill="#1F2B38"/>
<path d="M47.2098 0.466766C47.2098 0.208978 47.4188 0 47.6766 0H51.8775C52.1353 0 52.3443 0.208978 52.3443 0.466766V3.73413C52.3443 3.99192 52.1353 4.2009 51.8775 4.2009H47.6766C47.4188 4.2009 47.2098 3.99192 47.2098 3.73413V0.466766Z" fill="#1F2B38"/>
<path fill-rule="evenodd" clip-rule="evenodd" d="M47.2099 0.466797C47.2099 1.49795 46.374 2.33386 45.3428 2.33386H47.2099V0.466797Z" fill="#1F2B38"/>
<path d="M8.935 11.6692C8.935 11.4114 9.14398 11.2024 9.40176 11.2024H44.4092C44.667 11.2024 44.876 11.4114 44.876 11.6692V12.6027C44.876 12.8605 44.667 13.0695 44.4092 13.0695H9.40176C9.14398 13.0695 8.935 12.8605 8.935 12.6027V11.6692Z" fill="#1F2B38"/>
<path d="M8.935 23.805C8.935 23.5472 9.14398 23.3383 9.40176 23.3383H44.4092C44.667 23.3383 44.876 23.5472 44.876 23.805V24.7386C44.876 24.9963 44.667 25.2053 44.4092 25.2053H9.40176C9.14398 25.2053 8.935 24.9963 8.935 24.7386V23.805Z" fill="#1F2B38"/>
<path d="M8.935 35.941C8.935 35.6832 9.14398 35.4742 9.40176 35.4742H44.4092C44.667 35.4742 44.876 35.6832 44.876 35.941V36.8745C44.876 37.1323 44.667 37.3413 44.4092 37.3413H9.40176C9.14398 37.3413 8.935 37.1323 8.935 36.8745V35.941Z" fill="#1F2B38"/>
<path d="M43.4757 9.3353C43.4757 9.07751 43.6847 8.86853 43.9425 8.86853H48.1434C48.4012 8.86853 48.6101 9.07751 48.6101 9.3353V39.6751C48.6101 39.9329 48.4012 40.1419 48.1434 40.1419H43.9425C43.6847 40.1419 43.4757 39.9329 43.4757 39.6751V9.3353Z" fill="#1F2B38"/>
<path d="M4.73413 11.6692C4.73413 11.4114 4.94311 11.2024 5.2009 11.2024H9.40179C9.65958 11.2024 9.86856 11.4114 9.86856 11.6692V39.6751C9.86856 39.9329 9.65958 40.1419 9.40179 40.1419H5.2009C4.94311 40.1419 4.73413 39.9329 4.73413 39.6751V11.6692Z" fill="#1F2B38"/>
<path fill-rule="evenodd" clip-rule="evenodd" d="M43.4758 9.33533C43.4758 10.3665 42.6399 11.2024 41.6087 11.2024H43.4758V9.33533Z" fill="#1F2B38"/>
<mask id="mask0_69_10615" style="mask-type:alpha" maskUnits="userSpaceOnUse" x="5" y="3" width="25" height="23">
<path d="M5.20087 25.2053C16.59 17.3637 22.549 7.31264 24.1049 3.26733H29.0059C26.4387 8.40176 20.1374 16.3368 5.20087 25.2053Z" fill="#C5FD1E"/>
</mask>
<g mask="url(#mask0_69_10615)">
<path d="M18.2704 3.26733H33.6737V11.6691H18.2704V3.26733Z" fill="#1F2B38"/>
</g>
<path d="M6.76808 84.4847L9.56868 85.6517C8.04515 89.326 6.3816 92.7558 4.27555 95.4444L0.466736 92.6214C3.26733 90.0859 4.43425 88.919 6.76808 84.4847Z" fill="#1F2B38"/>
<path d="M19.8376 85.4182C21.0045 88.4522 22.1527 90.6423 22.8697 93.7789L18.1647 94.8992C17.9705 91.7196 17.7371 89.6191 16.8036 85.885L19.8376 85.4182Z" fill="#1F2B38"/>
<path d="M32.907 84.9515C35.2409 88.9191 35.6703 90.6424 36.5665 93.8238L31.8615 94.8993C31.5067 91.7196 31.2733 89.1524 29.873 85.6517L32.907 84.9515Z" fill="#1F2B38"/>
<path d="M46.4432 84.2513C49.0104 87.2853 51.3312 90.2017 52.7203 92.6214L48.8219 95.3548C47.1434 91.4862 46.2098 90.0859 43.4092 86.1184L46.4432 84.2513Z" fill="#1F2B38"/>
<path d="M6.06799 57.879C6.06799 57.6212 6.27697 57.4122 6.53476 57.4122H46.6766C46.9344 57.4122 47.1434 57.6212 47.1434 57.879V58.8125C47.1434 59.0703 46.9344 59.2793 46.6766 59.2793H6.53476C6.27697 59.2793 6.06799 59.0703 6.06799 58.8125V57.879Z" fill="#1F2B38"/>
<path d="M44.8096 55.5451C44.8096 55.2873 45.0185 55.0784 45.2763 55.0784H49.4772C49.735 55.0784 49.944 55.2873 49.944 55.5451V58.8125C49.944 59.0703 49.735 59.2793 49.4772 59.2793H45.2763C45.0185 59.2793 44.8096 59.0703 44.8096 58.8125V55.5451Z" fill="#1F2B38"/>
<path fill-rule="evenodd" clip-rule="evenodd" d="M44.8096 55.5452C44.8096 56.5763 43.9737 57.4122 42.9425 57.4122H44.8096V55.5452Z" fill="#1F2B38"/>
<path d="M1.86707 69.0815C1.86707 68.8237 2.07604 68.6147 2.33383 68.6147H50.8775C51.1353 68.6147 51.3443 68.8237 51.3443 69.0815V70.015C51.3443 70.2728 51.1353 70.4818 50.8775 70.4818H2.33383C2.07604 70.4818 1.86707 70.2728 1.86707 70.015V69.0815Z" fill="#1F2B38"/>
<path d="M46.2098 66.7476C46.2098 66.4899 46.4188 66.2809 46.6766 66.2809H50.8775C51.1353 66.2809 51.3443 66.4899 51.3443 66.7476V70.015C51.3443 70.2728 51.1353 70.4818 50.8775 70.4818H46.6766C46.4188 70.4818 46.2098 70.2728 46.2098 70.015V66.7476Z" fill="#1F2B38"/>
<path fill-rule="evenodd" clip-rule="evenodd" d="M46.2098 66.7477C46.2098 67.7788 45.3739 68.6147 44.3428 68.6147H46.2098V66.7477Z" fill="#1F2B38"/>
<path d="M0.466736 80.7505C0.466736 80.4927 0.675714 80.2837 0.933502 80.2837H52.2778C52.5356 80.2837 52.7445 80.4927 52.7445 80.7505V81.684C52.7445 81.9418 52.5356 82.1508 52.2778 82.1508H0.933503C0.675716 82.1508 0.466736 81.9418 0.466736 81.684V80.7505Z" fill="#1F2B38"/>
<path d="M47.6101 78.4167C47.6101 78.1589 47.8191 77.95 48.0769 77.95H52.2778C52.5356 77.95 52.7445 78.1589 52.7445 78.4167V81.6841C52.7445 81.9419 52.5356 82.1508 52.2778 82.1508H48.0769C47.8191 82.1508 47.6101 81.9419 47.6101 81.6841V78.4167Z" fill="#1F2B38"/>
<path fill-rule="evenodd" clip-rule="evenodd" d="M47.6101 78.4167C47.6101 79.4479 46.7742 80.2838 45.743 80.2838H47.6101V78.4167Z" fill="#1F2B38"/>
<path d="M7.00153 58.8126C7.00153 58.5548 7.2105 58.3458 7.46829 58.3458H11.6692C11.927 58.3458 12.136 58.5548 12.136 58.8126V80.7506C12.136 81.0084 11.927 81.2174 11.6692 81.2174H7.46829C7.2105 81.2174 7.00153 81.0084 7.00153 80.7506V58.8126Z" fill="#1F2B38"/>
<path d="M17.7371 58.8126C17.7371 58.5548 17.9461 58.3458 18.2039 58.3458H22.4048C22.6626 58.3458 22.8715 58.5548 22.8715 58.8126V80.7506C22.8715 81.0084 22.6626 81.2174 22.4048 81.2174H18.2039C17.9461 81.2174 17.7371 81.0084 17.7371 80.7506V58.8126Z" fill="#1F2B38"/>
<path d="M28.4727 58.8126C28.4727 58.5548 28.6817 58.3458 28.9395 58.3458H33.1404C33.3982 58.3458 33.6071 58.5548 33.6071 58.8126V80.7506C33.6071 81.0084 33.3982 81.2174 33.1404 81.2174H28.9395C28.6817 81.2174 28.4727 81.0084 28.4727 80.7506V58.8126Z" fill="#1F2B38"/>
<path d="M39.2084 58.8126C39.2084 58.5548 39.4174 58.3458 39.6751 58.3458H43.876C44.1338 58.3458 44.3428 58.5548 44.3428 58.8126V80.7506C44.3428 81.0084 44.1338 81.2174 43.876 81.2174H39.6751C39.4174 81.2174 39.2084 81.0084 39.2084 80.7506V58.8126Z" fill="#1F2B38"/>
<path d="M1.63368 64.8805L0 63.2469C2.42718 60.633 5.5234 55.1563 6.76811 52.7446L10.5022 54.6117C9.00859 58.1591 3.96751 62.9357 1.63368 64.8805Z" fill="#1F2B38"/>
<path d="M1.93353 114.582C1.93353 114.324 2.14251 114.115 2.4003 114.115H25.2718C25.5296 114.115 25.7386 114.324 25.7386 114.582V115.515C25.7386 115.773 25.5296 115.982 25.2718 115.982H2.4003C2.14251 115.982 1.93353 115.773 1.93353 115.515V114.582Z" fill="#1F2B38"/>
<path d="M27.6057 114.582C27.6057 114.324 27.8146 114.115 28.0724 114.115H49.5437C49.8014 114.115 50.0104 114.324 50.0104 114.582V115.515C50.0104 115.773 49.8014 115.982 49.5437 115.982H28.0724C27.8146 115.982 27.6057 115.773 27.6057 115.515V114.582Z" fill="#1F2B38"/>
<path d="M46.2763 112.248C46.2763 111.99 46.4853 111.781 46.7431 111.781H50.944C51.2018 111.781 51.4107 111.99 51.4107 112.248V115.515C51.4107 115.773 51.2018 115.982 50.944 115.982H46.7431C46.4853 115.982 46.2763 115.773 46.2763 115.515V112.248Z" fill="#1F2B38"/>
<path fill-rule="evenodd" clip-rule="evenodd" d="M46.2763 112.248C46.2763 113.279 45.4404 114.115 44.4092 114.115H46.2763V112.248Z" fill="#1F2B38"/>
<path d="M11.2689 108.514C11.2689 108.256 11.4778 108.047 11.7356 108.047H15.9365C16.1943 108.047 16.4033 108.256 16.4033 108.514V125.317C16.4033 125.575 16.1943 125.784 15.9365 125.784H11.7356C11.4778 125.784 11.2689 125.575 11.2689 125.317V108.514Z" fill="#1F2B38"/>
<path d="M36.941 108.514C36.941 108.256 37.15 108.047 37.4077 108.047H41.6086C41.8664 108.047 42.0754 108.256 42.0754 108.514V125.317C42.0754 125.575 41.8664 125.784 41.6086 125.784H37.4077C37.15 125.784 36.941 125.575 36.941 125.317V108.514Z" fill="#1F2B38"/>
<path d="M7.53473 129.518C7.53473 129.26 7.74371 129.051 8.0015 129.051H44.876C45.1338 129.051 45.3428 129.26 45.3428 129.518V130.452C45.3428 130.709 45.1338 130.918 44.876 130.918H8.00149C7.74371 130.918 7.53473 130.709 7.53473 130.452V129.518Z" fill="#1F2B38"/>
<path d="M40.6751 127.184C40.6751 126.927 40.8841 126.718 41.1419 126.718H45.3428C45.6006 126.718 45.8095 126.927 45.8095 127.184V130.452C45.8095 130.71 45.6006 130.919 45.3428 130.919H41.1419C40.8841 130.919 40.6751 130.71 40.6751 130.452V127.184Z" fill="#1F2B38"/>
<path fill-rule="evenodd" clip-rule="evenodd" d="M40.6751 127.184C40.6751 128.216 39.8392 129.052 38.808 129.052H40.6751V127.184Z" fill="#1F2B38"/>
<path d="M1 135.119C1 134.862 1.20898 134.653 1.46677 134.653H51.8775C52.1353 134.653 52.3443 134.862 52.3443 135.119V136.053C52.3443 136.311 52.1353 136.52 51.8775 136.52H1.46677C1.20898 136.52 1 136.311 1 136.053V135.119Z" fill="#1F2B38"/>
<path d="M47.2098 132.786C47.2098 132.528 47.4188 132.319 47.6766 132.319H51.8775C52.1353 132.319 52.3443 132.528 52.3443 132.786V136.053C52.3443 136.311 52.1353 136.52 51.8775 136.52H47.6766C47.4188 136.52 47.2098 136.311 47.2098 136.053V132.786Z" fill="#1F2B38"/>
<path fill-rule="evenodd" clip-rule="evenodd" d="M47.2099 132.786C47.2099 133.817 46.374 134.653 45.3428 134.653H47.2099V132.786Z" fill="#1F2B38"/>
<path d="M26.2053 149.122C24.3383 149.122 23.4047 147.255 20.8375 147.255L24.1049 146.322L25.2718 145.155H26.2053V149.122Z" fill="#1F2B38"/>
<path d="M24.8051 136.52C24.8051 136.262 25.014 136.053 25.2718 136.053H29.4727C29.7305 136.053 29.9395 136.262 29.9395 136.52V145.388H24.8051V136.52Z" fill="#1F2B38"/>
<path d="M29.9395 145.388C29.9395 145.879 29.8429 146.364 29.6553 146.817C29.4676 147.27 29.1926 147.682 28.8458 148.029C28.4991 148.375 28.0874 148.651 27.6344 148.838C27.1813 149.026 26.6958 149.122 26.2054 149.122L26.2054 145.388H29.9395Z" fill="#1F2B38"/>
<path d="M20.1374 145.855C20.1374 145.597 20.3464 145.388 20.6042 145.388H25.2718C25.5296 145.388 25.7386 145.597 25.7386 145.855V146.789C25.7386 147.046 25.5296 147.255 25.2718 147.255H20.6042C20.3464 147.255 20.1374 147.046 20.1374 146.789V145.855Z" fill="#1F2B38"/>
<path d="M21.5377 123.684L15.9365 116.916L16.47 114.582L20.6042 117.616L24.1049 120.65L21.5377 123.684Z" fill="#1F2B38"/>
<path d="M50.944 122.138C48.9039 120.922 44.2851 117.616 42.1307 114.115L41.1515 116.303C42.9329 120.667 46.1545 124.511 47.5166 125.784L50.944 122.138Z" fill="#1F2B38"/>
<path d="M1.93354 122.138C3.97364 120.922 8.59242 117.616 10.7468 114.115L11.726 116.303C9.94463 120.667 6.56296 124.044 5.20091 125.317L1.93354 122.138Z" fill="#1F2B38"/>
<path d="M27.6057 122.138C29.6458 120.922 34.2645 117.616 36.4189 114.115L37.3981 116.303C35.6167 120.667 32.3951 124.511 31.033 125.784L27.6057 122.138Z" fill="#1F2B38"/>
<path d="M12.6692 138.62L9.86859 137.687C8.93506 141.607 5.74549 144.221 4.2674 144.922L8.00152 147.955C11.1755 145.342 12.2802 140.643 12.6692 138.62Z" fill="#1F2B38"/>
<path d="M49.3103 145.622C47.4432 142.588 45.5762 140.02 42.5422 137.453L40.2084 139.087C43.009 142.821 44.6427 146.088 45.5762 148.189L49.3103 145.622Z" fill="#1F2B38"/>
<path d="M6.1344 164.526C6.1344 164.268 6.34338 164.059 6.60117 164.059H40.6751C40.9329 164.059 41.1419 164.268 41.1419 164.526V165.459C41.1419 165.717 40.9329 165.926 40.6751 165.926H6.60117C6.34338 165.926 6.1344 165.717 6.1344 165.459V164.526Z" fill="#1F2B38"/>
<path d="M6.6012 173.394C6.6012 173.137 6.81017 172.928 7.06796 172.928H40.6751C40.9329 172.928 41.1419 173.137 41.1419 173.394V174.328C41.1419 174.586 40.9329 174.795 40.6751 174.795H7.06796C6.81017 174.795 6.6012 174.586 6.6012 174.328V173.394Z" fill="#1F2B38"/>
<path d="M9.40179 183.197C9.40179 182.939 9.61077 182.73 9.86856 182.73H44.4093C44.667 182.73 44.876 182.939 44.876 183.197V184.13C44.876 184.388 44.667 184.597 44.4093 184.597H9.86856C9.61077 184.597 9.40179 184.388 9.40179 184.13V183.197Z" fill="#1F2B38"/>
<path d="M14.5362 198.6C14.5362 198.342 14.7452 198.133 15.003 198.133H40.2083C40.4661 198.133 40.6751 198.342 40.6751 198.6V199.533C40.6751 199.791 40.4661 200 40.2083 200H15.003C14.7452 200 14.5362 199.791 14.5362 199.533V198.6Z" fill="#1F2B38"/>
<path d="M40.2084 162.192C40.2084 161.934 40.4174 161.725 40.6751 161.725H44.876C45.1338 161.725 45.3428 161.934 45.3428 162.192V174.328C45.3428 174.586 45.1338 174.795 44.876 174.795H40.6751C40.4174 174.795 40.2084 174.586 40.2084 174.328V162.192Z" fill="#1F2B38"/>
<path d="M43.009 177.595C43.009 177.338 43.218 177.129 43.4757 177.129H47.6766C47.9344 177.129 48.1434 177.338 48.1434 177.595V180.863C48.1434 181.12 47.9344 181.329 47.6766 181.329H43.4757C43.218 181.329 43.009 181.12 43.009 180.863V177.595Z" fill="#1F2B38"/>
<path d="M38.8081 193.465C38.8081 193.208 39.0171 192.999 39.2749 192.999H43.4758C43.7336 192.999 43.9425 193.208 43.9425 193.465V196.266C43.9425 196.524 43.7336 196.733 43.4758 196.733H39.2749C39.0171 196.733 38.8081 196.524 38.8081 196.266V193.465Z" fill="#1F2B38"/>
<path d="M6.1344 173.394C6.1344 173.137 6.34338 172.928 6.60117 172.928H10.8021C11.0598 172.928 11.2688 173.137 11.2688 173.394V180.863C11.2688 181.12 11.0598 181.329 10.8021 181.329H6.60117C6.34338 181.329 6.1344 181.12 6.1344 180.863V173.394Z" fill="#1F2B38"/>
<path d="M11.2689 189.264C11.2689 189.007 11.4778 188.798 11.7356 188.798H15.9365C16.1943 188.798 16.4033 189.007 16.4033 189.264V196.266C16.4033 196.524 16.1943 196.733 15.9365 196.733H11.7356C11.4778 196.733 11.2689 196.524 11.2689 196.266V189.264Z" fill="#1F2B38"/>
<path fill-rule="evenodd" clip-rule="evenodd" d="M40.2084 162.192C40.2084 163.223 39.3725 164.059 38.3413 164.059H40.2084V162.192Z" fill="#1F2B38"/>
<path fill-rule="evenodd" clip-rule="evenodd" d="M14.0695 182.73C12.5231 182.73 11.2695 181.476 11.2689 179.93L11.2689 182.73L14.0695 182.73Z" fill="#1F2B38"/>
<path fill-rule="evenodd" clip-rule="evenodd" d="M19.2039 198.133C17.6576 198.133 16.4039 196.88 16.4033 195.333L16.4033 198.133L19.2039 198.133Z" fill="#1F2B38"/>
<path fill-rule="evenodd" clip-rule="evenodd" d="M43.0078 179.929C43.0078 181.475 41.7546 182.729 40.2084 182.73L43.0078 182.73V179.929Z" fill="#1F2B38"/>
<path fill-rule="evenodd" clip-rule="evenodd" d="M38.8069 195.332C38.8069 196.879 37.5537 198.132 36.0074 198.133L38.8069 198.133V195.332Z" fill="#1F2B38"/>
<path d="M6.1344 180.863C6.1344 181.353 6.23099 181.839 6.41864 182.292C6.6063 182.745 6.88136 183.156 7.2281 183.503C7.57485 183.85 7.9865 184.125 8.43954 184.313C8.89259 184.5 9.37816 184.597 9.86853 184.597L9.86853 180.863L6.1344 180.863Z" fill="#1F2B38"/>
<path d="M11.2689 196.266C11.2689 196.756 11.3654 197.242 11.5531 197.695C11.7408 198.148 12.0158 198.56 12.3626 198.906C12.7093 199.253 13.121 199.528 13.574 199.716C14.027 199.903 14.5126 200 15.003 200L15.003 196.266L11.2689 196.266Z" fill="#1F2B38"/>
<path d="M44.4092 184.597C44.8996 184.597 45.3852 184.5 45.8382 184.312C46.2913 184.125 46.7029 183.85 47.0497 183.503C47.3964 183.156 47.6715 182.745 47.8591 182.292C48.0468 181.838 48.1434 181.353 48.1434 180.863L44.4092 180.863L44.4092 184.597Z" fill="#1F2B38"/>
<path d="M40.2084 200C40.6987 200 41.1843 199.903 41.6374 199.716C42.0904 199.528 42.5021 199.253 42.8488 198.906C43.1955 198.56 43.4706 198.148 43.6583 197.695C43.8459 197.242 43.9425 196.756 43.9425 196.266L40.2084 196.266L40.2084 200Z" fill="#1F2B38"/>
<path d="M8.935 180.396H11.2688V183.196H8.935V180.396Z" fill="#1F2B38"/>
<path d="M14.0695 195.799H16.4033V198.6H14.0695V195.799Z" fill="#1F2B38"/>
<path d="M43.009 180.396H45.3428V183.196H43.009V180.396Z" fill="#1F2B38"/>
<path d="M38.8081 195.799H41.1419V198.6H38.8081V195.799Z" fill="#1F2B38"/>
<path d="M9.86856 189.498L6.83458 188.798C5.90104 192.718 2.47809 195.099 1 195.799L4.73413 198.833C7.90814 196.219 9.47958 191.52 9.86856 189.498Z" fill="#1F2B38"/>
<path d="M27.839 186.464L23.8715 188.798C26.112 190.291 28.6948 193.776 29.7061 195.332L31.8065 193.699C30.873 191.458 28.8504 187.864 27.839 186.464Z" fill="#1F2B38"/>
<path d="M52.3443 196.033C50.7106 193.232 48.3768 190.665 45.1094 187.164L43.009 189.031C45.8096 192.765 47.6766 196.499 48.6102 198.6L52.3443 196.033Z" fill="#1F2B38"/>
</svg>
